<svg xmlns="http://www.w3.org/2000/svg" xmlns:xlink="http://www.w3.org/1999/xlink" width="500" zoomAndPan="magnify" viewBox="0 0 375 374.999991" height="500" preserveAspectRatio="xMidYMid meet" version="1.0"><defs><clipPath id="86e3ac022e"><path d="M 315 176 L 337.5 176 L 337.5 199 L 315 199 Z M 315 176 " clip-rule="nonzero"/></clipPath><clipPath id="29daf84f22"><path d="M 37.5 176 L 60 176 L 60 199 L 37.5 199 Z M 37.5 176 " clip-rule="nonzero"/></clipPath><clipPath id="4c098f775e"><path d="M 176 315 L 199 315 L 199 337.5 L 176 337.5 Z M 176 315 " clip-rule="nonzero"/></clipPath><clipPath id="b8cab10f06"><path d="M 176 37.5 L 199 37.5 L 199 60 L 176 60 Z M 176 37.5 " clip-rule="nonzero"/></clipPath></defs><path fill="#01297f" d="M 156.410156 235.800781 C 162.472656 241.222656 171.476562 241.261719 177.570312 236.25 C 185.121094 242.089844 193.144531 246.777344 201.554688 250.234375 C 212.171875 254.597656 223.410156 257.03125 234.964844 257.46875 C 248.085938 257.960938 258.515625 255.785156 264.175781 254.210938 C 267.9375 257.800781 273.753906 258.652344 278.484375 255.921875 C 284.234375 252.601562 286.207031 245.25 282.886719 239.5 C 279.566406 233.75 272.214844 231.78125 266.464844 235.101562 C 261.027344 238.238281 258.972656 244.980469 261.570312 250.566406 C 255.902344 252.003906 246.4375 253.742188 234.9375 253.289062 C 229.242188 253.0625 222.648438 252.269531 215.511719 250.433594 C 217.503906 249.726562 219.472656 248.9375 221.414062 248.066406 C 230.804688 243.839844 237.371094 238.679688 240.800781 235.601562 C 244.695312 236.8125 249.074219 235.386719 251.445312 231.820312 C 254.324219 227.484375 253.148438 221.632812 248.8125 218.753906 C 244.480469 215.871094 238.628906 217.046875 235.746094 221.382812 C 233.023438 225.480469 233.925781 230.929688 237.699219 233.949219 C 234.214844 236.933594 228.175781 241.453125 219.9375 245.140625 C 216.996094 246.453125 213.617188 247.726562 209.84375 248.78125 C 200.519531 245.746094 190.480469 240.859375 180.449219 233.183594 C 185.261719 226.515625 184.355469 217.152344 178.089844 211.550781 C 171.394531 205.5625 161.109375 206.140625 155.125 212.835938 C 149.136719 219.53125 149.710938 229.8125 156.410156 235.800781 " fill-opacity="1" fill-rule="nonzero"/><path fill="#00adef" d="M 130.125 184.726562 C 128.460938 192.6875 132.929688 200.503906 140.316406 203.273438 C 139.03125 212.734375 138.988281 222.027344 140.199219 231.039062 C 141.722656 242.414062 145.238281 253.367188 150.640625 263.589844 C 156.773438 275.199219 163.871094 283.140625 168.0625 287.261719 C 166.835938 292.3125 169.007812 297.777344 173.738281 300.507812 C 179.488281 303.824219 186.839844 301.855469 190.15625 296.105469 C 193.480469 290.355469 191.507812 283.003906 185.757812 279.683594 C 180.324219 276.546875 173.453125 278.136719 169.917969 283.179688 C 165.839844 278.992188 159.601562 271.664062 154.246094 261.476562 C 151.59375 256.429688 148.984375 250.324219 147.003906 243.222656 C 148.609375 244.597656 150.277344 245.90625 152.003906 247.152344 C 160.359375 253.171875 168.113281 256.277344 172.492188 257.710938 C 173.390625 261.6875 176.816406 264.765625 181.089844 265.039062 C 186.285156 265.363281 190.765625 261.421875 191.09375 256.226562 C 191.421875 251.03125 187.476562 246.550781 182.28125 246.222656 C 177.371094 245.914062 173.101562 249.421875 172.371094 254.195312 C 168.050781 252.675781 161.113281 249.699219 153.800781 244.410156 C 151.191406 242.519531 148.402344 240.234375 145.601562 237.492188 C 143.570312 227.898438 142.777344 216.761719 144.414062 204.234375 C 152.589844 205.066406 160.246094 199.605469 161.964844 191.375 C 163.800781 182.582031 158.164062 173.964844 149.371094 172.128906 C 140.578125 170.292969 131.960938 175.933594 130.125 184.726562 " fill-opacity="1" fill-rule="nonzero"/><path fill="#01297f" d="M 161.214844 136.425781 C 153.488281 138.964844 148.949219 146.742188 150.246094 154.523438 C 141.410156 158.144531 133.34375 162.75 126.144531 168.304688 C 117.054688 175.3125 109.328125 183.832031 103.175781 193.621094 C 96.1875 204.738281 92.855469 214.855469 91.386719 220.546875 C 86.394531 222.011719 82.753906 226.621094 82.753906 232.085938 C 82.753906 238.722656 88.132812 244.105469 94.773438 244.105469 C 101.414062 244.105469 106.792969 238.722656 106.792969 232.085938 C 106.792969 225.808594 101.984375 220.65625 95.847656 220.109375 C 97.4375 214.484375 100.664062 205.417969 106.804688 195.6875 C 109.847656 190.867188 113.835938 185.554688 118.992188 180.292969 C 118.609375 182.367188 118.308594 184.46875 118.09375 186.585938 C 117.058594 196.832031 118.242188 205.097656 119.191406 209.609375 C 116.199219 212.375 115.242188 216.878906 117.144531 220.71875 C 119.460938 225.382812 125.113281 227.289062 129.777344 224.972656 C 134.441406 222.660156 136.347656 217.003906 134.035156 212.339844 C 131.847656 207.933594 126.675781 205.988281 122.175781 207.746094 C 121.332031 203.242188 120.4375 195.75 121.367188 186.773438 C 121.695312 183.566406 122.28125 180.007812 123.253906 176.210938 C 130.546875 169.652344 139.796875 163.398438 151.464844 158.550781 C 154.832031 166.054688 163.390625 169.949219 171.378906 167.324219 C 179.910156 164.519531 184.550781 155.328125 181.746094 146.792969 C 178.941406 138.261719 169.746094 133.617188 161.214844 136.425781 " fill-opacity="1" fill-rule="nonzero"/><path fill="#00adef" d="M 218.589844 139.199219 C 212.527344 133.777344 203.523438 133.738281 197.429688 138.75 C 189.878906 132.90625 181.855469 128.222656 173.445312 124.765625 C 162.828125 120.398438 151.589844 117.964844 140.035156 117.53125 C 126.914062 117.039062 116.484375 119.214844 110.824219 120.785156 C 107.0625 117.195312 101.246094 116.347656 96.515625 119.078125 C 90.765625 122.398438 88.792969 129.75 92.117188 135.5 C 95.433594 141.25 102.785156 143.21875 108.535156 139.898438 C 113.972656 136.761719 116.027344 130.019531 113.429688 124.433594 C 119.097656 122.996094 128.5625 121.257812 140.0625 121.710938 C 145.757812 121.9375 152.351562 122.730469 159.488281 124.566406 C 157.496094 125.273438 155.527344 126.058594 153.585938 126.933594 C 144.195312 131.160156 137.628906 136.320312 134.199219 139.398438 C 130.304688 138.1875 125.925781 139.613281 123.554688 143.179688 C 120.675781 147.515625 121.851562 153.367188 126.1875 156.25 C 130.519531 159.128906 136.371094 157.953125 139.253906 153.617188 C 141.976562 149.519531 141.074219 144.070312 137.304688 141.050781 C 140.785156 138.066406 146.824219 133.546875 155.0625 129.859375 C 158.003906 128.542969 161.382812 127.273438 165.15625 126.21875 C 174.480469 129.253906 184.519531 134.136719 194.550781 141.820312 C 189.738281 148.484375 190.644531 157.847656 196.910156 163.449219 C 203.605469 169.433594 213.890625 168.859375 219.875 162.164062 C 225.863281 155.46875 225.289062 145.183594 218.589844 139.199219 " fill-opacity="1" fill-rule="nonzero"/><path fill="#01297f" d="M 244.875 190.273438 C 246.539062 182.3125 242.070312 174.496094 234.683594 171.726562 C 235.96875 162.261719 236.011719 152.972656 234.800781 143.960938 C 233.277344 132.585938 229.761719 121.632812 224.359375 111.410156 C 218.230469 99.800781 211.128906 91.859375 206.9375 87.738281 C 208.164062 82.6875 205.992188 77.226562 201.261719 74.492188 C 195.515625 71.175781 188.160156 73.144531 184.84375 78.894531 C 181.519531 84.644531 183.492188 91.996094 189.242188 95.316406 C 194.675781 98.453125 201.546875 96.863281 205.082031 91.820312 C 209.160156 96.011719 215.398438 103.335938 220.753906 113.523438 C 223.40625 118.570312 226.015625 124.675781 227.996094 131.777344 C 226.390625 130.402344 224.722656 129.09375 222.996094 127.847656 C 214.640625 121.828125 206.886719 118.722656 202.507812 117.289062 C 201.609375 113.3125 198.183594 110.234375 193.910156 109.960938 C 188.714844 109.636719 184.234375 113.578125 183.90625 118.773438 C 183.578125 123.96875 187.523438 128.449219 192.71875 128.777344 C 197.628906 129.085938 201.898438 125.578125 202.628906 120.804688 C 206.953125 122.324219 213.886719 125.300781 221.199219 130.589844 C 223.808594 132.476562 226.597656 134.765625 229.398438 137.507812 C 231.429688 147.101562 232.222656 158.238281 230.585938 170.765625 C 222.410156 169.929688 214.753906 175.398438 213.035156 183.625 C 211.199219 192.417969 216.835938 201.03125 225.628906 202.871094 C 234.421875 204.707031 243.039062 199.070312 244.875 190.273438 " fill-opacity="1" fill-rule="nonzero"/><path fill="#00adef" d="M 213.785156 238.574219 C 221.511719 236.035156 226.050781 228.257812 224.753906 220.472656 C 233.589844 216.855469 241.65625 212.25 248.855469 206.695312 C 257.945312 199.6875 265.671875 191.167969 271.824219 181.378906 C 278.8125 170.261719 282.144531 160.144531 283.613281 154.453125 C 288.605469 152.988281 292.246094 148.378906 292.246094 142.914062 C 292.246094 136.277344 286.863281 130.894531 280.226562 130.894531 C 273.585938 130.894531 268.207031 136.277344 268.207031 142.914062 C 268.207031 149.191406 273.015625 154.34375 279.152344 154.886719 C 277.5625 160.515625 274.335938 169.578125 268.195312 179.3125 C 265.152344 184.132812 261.164062 189.445312 256.007812 194.707031 C 256.390625 192.628906 256.691406 190.53125 256.90625 188.414062 C 257.941406 178.167969 256.757812 169.902344 255.808594 165.390625 C 258.800781 162.625 259.757812 158.121094 257.855469 154.28125 C 255.539062 149.617188 249.886719 147.714844 245.222656 150.027344 C 240.558594 152.339844 238.652344 157.992188 240.964844 162.660156 C 243.152344 167.066406 248.324219 169.007812 252.824219 167.253906 C 253.667969 171.757812 254.5625 179.25 253.636719 188.230469 C 253.304688 191.433594 252.71875 194.992188 251.746094 198.789062 C 244.453125 205.347656 235.203125 211.597656 223.535156 216.449219 C 220.167969 208.945312 211.609375 205.050781 203.621094 207.675781 C 195.089844 210.480469 190.449219 219.671875 193.253906 228.207031 C 196.058594 236.738281 205.253906 241.382812 213.785156 238.574219 " fill-opacity="1" fill-rule="nonzero"/><g clip-path="url(#86e3ac022e)"><path fill="#01297f" d="M 326.578125 198.417969 C 320.546875 198.417969 315.65625 193.53125 315.65625 187.5 C 315.65625 181.46875 320.546875 176.578125 326.578125 176.578125 C 332.613281 176.578125 337.5 181.46875 337.5 187.5 C 337.5 193.53125 332.613281 198.417969 326.578125 198.417969 " fill-opacity="1" fill-rule="nonzero"/></g><g clip-path="url(#29daf84f22)"><path fill="#01297f" d="M 48.421875 198.421875 C 42.390625 198.421875 37.5 193.53125 37.5 187.5 C 37.5 181.46875 42.390625 176.578125 48.421875 176.578125 C 54.453125 176.578125 59.34375 181.46875 59.34375 187.5 C 59.34375 193.53125 54.453125 198.421875 48.421875 198.421875 " fill-opacity="1" fill-rule="nonzero"/></g><g clip-path="url(#4c098f775e)"><path fill="#01297f" d="M 176.578125 326.578125 C 176.578125 320.546875 181.46875 315.65625 187.5 315.65625 C 193.53125 315.65625 198.421875 320.546875 198.421875 326.578125 C 198.421875 332.613281 193.53125 337.5 187.5 337.5 C 181.46875 337.5 176.578125 332.613281 176.578125 326.578125 " fill-opacity="1" fill-rule="nonzero"/></g><g clip-path="url(#b8cab10f06)"><path fill="#01297f" d="M 176.578125 48.421875 C 176.578125 42.390625 181.46875 37.5 187.5 37.5 C 193.53125 37.5 198.421875 42.390625 198.421875 48.421875 C 198.421875 54.453125 193.53125 59.339844 187.5 59.339844 C 181.46875 59.339844 176.578125 54.453125 176.578125 48.421875 " fill-opacity="1" fill-rule="nonzero"/></g><path fill="#01297f" d="M 278.121094 293.566406 C 273.855469 289.300781 273.855469 282.386719 278.121094 278.121094 C 282.386719 273.855469 289.300781 273.855469 293.566406 278.121094 C 297.832031 282.386719 297.832031 289.300781 293.566406 293.566406 C 289.300781 297.832031 282.386719 297.832031 278.121094 293.566406 " fill-opacity="1" fill-rule="nonzero"/><path fill="#01297f" d="M 81.433594 96.878906 C 77.167969 92.613281 77.167969 85.699219 81.433594 81.433594 C 85.699219 77.167969 92.613281 77.167969 96.878906 81.433594 C 101.144531 85.699219 101.144531 92.613281 96.878906 96.878906 C 92.613281 101.144531 85.699219 101.144531 81.433594 96.878906 " fill-opacity="1" fill-rule="nonzero"/><path fill="#01297f" d="M 81.433594 278.121094 C 85.699219 273.855469 92.613281 273.855469 96.878906 278.121094 C 101.144531 282.386719 101.144531 289.300781 96.878906 293.566406 C 92.613281 297.832031 85.699219 297.832031 81.433594 293.566406 C 77.167969 289.300781 77.167969 282.386719 81.433594 278.121094 " fill-opacity="1" fill-rule="nonzero"/><path fill="#01297f" d="M 278.121094 81.433594 C 282.386719 77.167969 289.300781 77.167969 293.566406 81.433594 C 297.832031 85.699219 297.832031 92.613281 293.566406 96.878906 C 289.300781 101.144531 282.386719 101.144531 278.121094 96.878906 C 273.855469 92.613281 273.855469 85.699219 278.121094 81.433594 " fill-opacity="1" fill-rule="nonzero"/><path fill="#00adef" d="M 311 252.382812 C 305.460938 250.003906 302.894531 243.582031 305.273438 238.039062 C 307.652344 232.496094 314.074219 229.933594 319.617188 232.3125 C 325.160156 234.6875 327.722656 241.109375 325.34375 246.652344 C 322.964844 252.195312 316.542969 254.761719 311 252.382812 " fill-opacity="1" fill-rule="nonzero"/><path fill="#00adef" d="M 55.382812 142.6875 C 49.839844 140.308594 47.277344 133.886719 49.65625 128.347656 C 52.035156 122.804688 58.457031 120.238281 63.996094 122.617188 C 69.539062 124.996094 72.105469 131.417969 69.726562 136.960938 C 67.347656 142.503906 60.925781 145.066406 55.382812 142.6875 " fill-opacity="1" fill-rule="nonzero"/><path fill="#00adef" d="M 122.617188 311.003906 C 124.996094 305.460938 131.417969 302.894531 136.960938 305.273438 C 142.503906 307.652344 145.066406 314.074219 142.6875 319.617188 C 140.3125 325.160156 133.890625 327.722656 128.347656 325.34375 C 122.804688 322.964844 120.238281 316.542969 122.617188 311.003906 " fill-opacity="1" fill-rule="nonzero"/><path fill="#00adef" d="M 232.3125 55.386719 C 234.691406 49.84375 241.109375 47.277344 246.652344 49.65625 C 252.195312 52.035156 254.761719 58.457031 252.382812 64 C 250.003906 69.542969 243.582031 72.105469 238.039062 69.726562 C 232.496094 67.347656 229.929688 60.929688 232.3125 55.386719 " fill-opacity="1" fill-rule="nonzero"/><path fill="#00adef" d="M 228.949219 320.707031 C 226.710938 315.105469 229.4375 308.753906 235.039062 306.515625 C 240.640625 304.277344 246.996094 307.003906 249.234375 312.605469 C 251.46875 318.207031 248.742188 324.5625 243.140625 326.796875 C 237.542969 329.035156 231.1875 326.308594 228.949219 320.707031 " fill-opacity="1" fill-rule="nonzero"/><path fill="#00adef" d="M 125.765625 62.394531 C 123.53125 56.792969 126.257812 50.4375 131.859375 48.203125 C 137.457031 45.964844 143.8125 48.691406 146.050781 54.292969 C 148.289062 59.894531 145.5625 66.246094 139.960938 68.484375 C 134.359375 70.722656 128.003906 67.996094 125.765625 62.394531 " fill-opacity="1" fill-rule="nonzero"/><path fill="#00adef" d="M 292.914062 195.777344 C 288.34375 195.777344 284.636719 192.070312 284.636719 187.5 C 284.636719 182.929688 288.34375 179.222656 292.914062 179.222656 C 297.484375 179.222656 301.191406 182.929688 301.191406 187.5 C 301.191406 192.070312 297.484375 195.777344 292.914062 195.777344 " fill-opacity="1" fill-rule="nonzero"/><path fill="#00adef" d="M 82.085938 195.777344 C 77.515625 195.777344 73.808594 192.070312 73.808594 187.5 C 73.808594 182.929688 77.515625 179.222656 82.085938 179.222656 C 86.65625 179.222656 90.363281 182.929688 90.363281 187.5 C 90.363281 192.070312 86.65625 195.777344 82.085938 195.777344 " fill-opacity="1" fill-rule="nonzero"/><path fill="#00adef" d="M 107.109375 256.1875 C 110.339844 252.953125 115.582031 252.953125 118.8125 256.1875 C 122.046875 259.417969 122.046875 264.660156 118.8125 267.890625 C 115.582031 271.125 110.339844 271.125 107.109375 267.890625 C 103.875 264.660156 103.875 259.417969 107.109375 256.1875 " fill-opacity="1" fill-rule="nonzero"/><path fill="#00adef" d="M 256.1875 107.109375 C 259.417969 103.875 264.660156 103.875 267.890625 107.109375 C 271.125 110.339844 271.125 115.582031 267.890625 118.8125 C 264.660156 122.046875 259.417969 122.046875 256.1875 118.8125 C 252.953125 115.582031 252.953125 110.339844 256.1875 107.109375 " fill-opacity="1" fill-rule="nonzero"/><path fill="#00adef" d="M 218.917969 288.460938 C 217.222656 284.214844 219.289062 279.402344 223.535156 277.703125 C 227.777344 276.011719 232.59375 278.078125 234.289062 282.324219 C 235.984375 286.570312 233.917969 291.382812 229.675781 293.082031 C 225.429688 294.777344 220.613281 292.707031 218.917969 288.460938 " fill-opacity="1" fill-rule="nonzero"/><path fill="#00adef" d="M 140.710938 92.675781 C 139.015625 88.433594 141.082031 83.617188 145.324219 81.921875 C 149.570312 80.222656 154.386719 82.292969 156.082031 86.535156 C 157.777344 90.78125 155.710938 95.597656 151.464844 97.292969 C 147.222656 98.988281 142.40625 96.921875 140.710938 92.675781 " fill-opacity="1" fill-rule="nonzero"/><path fill="#00adef" d="M 54.292969 228.949219 C 59.894531 226.710938 66.246094 229.4375 68.484375 235.039062 C 70.722656 240.640625 67.996094 246.996094 62.394531 249.234375 C 56.792969 251.46875 50.4375 248.742188 48.203125 243.140625 C 45.964844 237.539062 48.691406 231.1875 54.292969 228.949219 " fill-opacity="1" fill-rule="nonzero"/><path fill="#00adef" d="M 312.605469 125.765625 C 318.207031 123.53125 324.5625 126.257812 326.796875 131.855469 C 329.035156 137.457031 326.308594 143.8125 320.707031 146.050781 C 315.105469 148.289062 308.753906 145.5625 306.515625 139.960938 C 304.277344 134.359375 307.003906 128.003906 312.605469 125.765625 " fill-opacity="1" fill-rule="nonzero"/></svg>